<mxfile host="Electron" modified="2024-08-07T09:49:09.119Z" agent="Mozilla/5.0 (Windows NT 10.0; Win64; x64) AppleWebKit/537.36 (KHTML, like Gecko) draw.io/24.6.1 Chrome/124.0.6367.207 Electron/30.0.6 Safari/537.36" etag="oPLbqHZH_qirF2SMy-QV" version="24.6.1" type="device">
  <diagram name="第 1 页" id="rxfkqc63uRO0IMu8QWkD">
    <mxGraphModel dx="1036" dy="614" grid="1" gridSize="10" guides="1" tooltips="1" connect="1" arrows="1" fold="1" page="1" pageScale="1" pageWidth="827" pageHeight="1169" math="0" shadow="0">
      <root>
        <mxCell id="0" />
        <mxCell id="1" parent="0" />
        <mxCell id="fTkvGGSf30WEWTq9ndP8-3" value="" style="edgeStyle=orthogonalEdgeStyle;rounded=0;orthogonalLoop=1;jettySize=auto;html=1;" edge="1" parent="1" source="fTkvGGSf30WEWTq9ndP8-1" target="fTkvGGSf30WEWTq9ndP8-2">
          <mxGeometry relative="1" as="geometry" />
        </mxCell>
        <mxCell id="fTkvGGSf30WEWTq9ndP8-1" value="premain" style="rounded=0;whiteSpace=wrap;html=1;" vertex="1" parent="1">
          <mxGeometry x="360" y="140" width="120" height="60" as="geometry" />
        </mxCell>
        <mxCell id="fTkvGGSf30WEWTq9ndP8-18" style="edgeStyle=orthogonalEdgeStyle;rounded=0;orthogonalLoop=1;jettySize=auto;html=1;entryX=0.5;entryY=0;entryDx=0;entryDy=0;" edge="1" parent="1" source="fTkvGGSf30WEWTq9ndP8-2" target="fTkvGGSf30WEWTq9ndP8-6">
          <mxGeometry relative="1" as="geometry" />
        </mxCell>
        <mxCell id="fTkvGGSf30WEWTq9ndP8-2" value="&lt;a href=&quot;.1.1.skywalking-agent 初始化配置.drawio&quot;&gt;初始化配置&lt;/a&gt;" style="whiteSpace=wrap;html=1;rounded=0;" vertex="1" parent="1">
          <mxGeometry x="360" y="280" width="120" height="60" as="geometry" />
        </mxCell>
        <mxCell id="fTkvGGSf30WEWTq9ndP8-9" value="" style="edgeStyle=orthogonalEdgeStyle;rounded=0;orthogonalLoop=1;jettySize=auto;html=1;" edge="1" parent="1" source="fTkvGGSf30WEWTq9ndP8-6" target="fTkvGGSf30WEWTq9ndP8-8">
          <mxGeometry relative="1" as="geometry" />
        </mxCell>
        <mxCell id="fTkvGGSf30WEWTq9ndP8-6" value="构造 插件寻找器" style="whiteSpace=wrap;html=1;rounded=0;" vertex="1" parent="1">
          <mxGeometry x="360" y="410" width="120" height="60" as="geometry" />
        </mxCell>
        <mxCell id="fTkvGGSf30WEWTq9ndP8-11" value="" style="edgeStyle=orthogonalEdgeStyle;rounded=0;orthogonalLoop=1;jettySize=auto;html=1;" edge="1" parent="1" source="fTkvGGSf30WEWTq9ndP8-8" target="fTkvGGSf30WEWTq9ndP8-10">
          <mxGeometry relative="1" as="geometry" />
        </mxCell>
        <mxCell id="fTkvGGSf30WEWTq9ndP8-8" value="通过插件&lt;div&gt;安装、增强类&lt;/div&gt;" style="whiteSpace=wrap;html=1;rounded=0;" vertex="1" parent="1">
          <mxGeometry x="360" y="550" width="120" height="60" as="geometry" />
        </mxCell>
        <mxCell id="fTkvGGSf30WEWTq9ndP8-15" value="" style="edgeStyle=orthogonalEdgeStyle;rounded=0;orthogonalLoop=1;jettySize=auto;html=1;" edge="1" parent="1" source="fTkvGGSf30WEWTq9ndP8-10" target="fTkvGGSf30WEWTq9ndP8-14">
          <mxGeometry relative="1" as="geometry" />
        </mxCell>
        <mxCell id="fTkvGGSf30WEWTq9ndP8-10" value="回调生命周期函数" style="whiteSpace=wrap;html=1;rounded=0;" vertex="1" parent="1">
          <mxGeometry x="360" y="690" width="120" height="60" as="geometry" />
        </mxCell>
        <mxCell id="fTkvGGSf30WEWTq9ndP8-14" value="结束" style="ellipse;whiteSpace=wrap;html=1;rounded=0;" vertex="1" parent="1">
          <mxGeometry x="380" y="820" width="80" height="80" as="geometry" />
        </mxCell>
      </root>
    </mxGraphModel>
  </diagram>
</mxfile>
